<?xml version="1.0" encoding="utf-8"?>
<!-- Generator: Adobe Illustrator 27.3.1, SVG Export Plug-In . SVG Version: 6.00 Build 0)  -->
<svg version="1.1" id="Layer_1" xmlns="http://www.w3.org/2000/svg" xmlns:xlink="http://www.w3.org/1999/xlink" x="0px" y="0px"
	 viewBox="0 0 3296.46 2000" style="enable-background:new 0 0 3296.46 2000;" xml:space="preserve">
<style type="text/css">
	.st0{fill-rule:evenodd;clip-rule:evenodd;fill:#122239;}
	.st1{fill:#122239;}
	.st2{fill:url(#SVGID_1_);}
	.st3{fill:url(#SVGID_00000083793511344306969520000007426871261470385028_);}
	.st4{fill:url(#SVGID_00000005978583643967978120000003638517652398325667_);}
	.st5{fill:url(#SVGID_00000024682964110986640830000016806015082973631920_);}
	.st6{fill:#306ACF;}
</style>
<g>
	<path class="st6" d="M1296.75,1026.59c-78.84-0.81-118.26-25.78-118.26-74.92c0-14.03,2.76-26.66,8.3-37.86
		c5.53-11.2,13.36-20.72,23.49-28.55c10.13-7.83,22.41-13.83,36.85-18.02c14.44-4.18,30.71-6.28,48.8-6.28
		c33.47,0,60.55,8.1,81.2,24.3c20.65,16.2,33.95,39.69,39.89,70.47h-40.5c-8.64-37.26-34.7-55.89-78.16-55.89
		c-25.11,0-44.75,4.73-58.93,14.17c-14.17,9.45-21.26,22.42-21.26,38.88c0,5.94,1.35,11.07,4.05,15.39
		c2.7,4.32,7.15,7.83,13.36,10.53c6.21,2.7,14.24,4.72,24.1,6.07c9.85,1.35,21.93,2.16,36.25,2.43c40.5,0.54,70.27,7.29,89.3,20.25
		c19.04,12.96,28.55,32.94,28.55,59.94c0,26.46-9.99,47.32-29.97,62.57c-19.98,15.26-47.66,22.88-83.02,22.88
		c-35.64,0-63.86-8.03-84.64-24.1c-20.79-16.06-33.08-39.62-36.85-70.67h40.5c2.16,19.17,9.78,33.28,22.88,42.32
		c13.09,9.05,31.92,13.57,56.5,13.57c24.3,0,42.93-4.18,55.89-12.55c12.96-8.36,19.44-20.11,19.44-35.23
		c0-7.29-1.35-13.43-4.05-18.43c-2.7-4.99-7.09-9.04-13.16-12.15c-6.08-3.1-14.04-5.33-23.89-6.68
		C1323.55,1027.67,1311.33,1026.87,1296.75,1026.59z"/>
	<path class="st6" d="M1541.77,1152.54c-15.39,0-29.43-2.5-42.12-7.49c-12.69-4.99-23.56-12.01-32.6-21.06
		c-9.05-9.04-16.07-19.91-21.06-32.6c-5-12.69-7.49-26.73-7.49-42.12c0-15.39,2.49-29.63,7.49-42.73
		c4.99-13.09,12.01-24.43,21.06-34.02c9.04-9.58,19.91-17.07,32.6-22.48c12.69-5.4,26.73-8.1,42.12-8.1
		c28.35,0,51.64,9.31,69.86,27.94s29.36,44.82,33.41,78.57l12.15,100.03h-39.69l-2.83-22.68c-8.91,8.64-19.51,15.26-31.79,19.85
		C1570.59,1150.25,1556.89,1152.54,1541.77,1152.54z M1605.36,1048.46c0-9.45-1.56-18.22-4.66-26.32
		c-3.11-8.1-7.43-15.12-12.96-21.06c-5.54-5.93-12.22-10.53-20.05-13.77c-7.83-3.24-16.47-4.86-25.92-4.86
		c-9.45,0-18.09,1.62-25.92,4.86c-7.83,3.24-14.58,7.84-20.25,13.77c-5.67,5.94-10.06,12.96-13.16,21.06
		c-3.11,8.1-4.66,16.88-4.66,26.32c0,19.18,5.87,34.56,17.62,46.17c11.74,11.61,27.2,17.41,46.37,17.41
		c19.17,0,34.56-5.8,46.17-17.41C1599.55,1083.03,1605.36,1067.64,1605.36,1048.46z"/>
	<path class="st6" d="M1795.7,899.43c-22.95-3.5-39.76,0-50.42,10.53c-10.67,10.53-16,29.03-16,55.49v183.05H1690V966.25
		c0-39.95,8.64-68.71,25.92-86.26c17.28-17.55,43.87-24.57,79.78-21.06V899.43z M1774.24,946v39.69H1690l5.67-39.69H1774.24z"/>
	<path class="st6" d="M1915.98,1112.05c9.45,0,17.88-1.68,25.31-5.06c7.42-3.38,13.7-7.96,18.83-13.77
		c5.13-5.8,8.97-12.76,11.54-20.86c2.56-8.1,3.85-16.87,3.85-26.32V946h39.69v99.22c0,15.39-2.3,29.63-6.88,42.73
		c-4.59,13.1-11.14,24.44-19.64,34.02c-8.51,9.59-18.9,17.08-31.18,22.48c-12.29,5.4-26.12,8.1-41.51,8.1s-28.89-2.7-40.5-8.1
		c-11.61-5.4-21.46-12.89-29.56-22.48c-8.1-9.58-14.52-20.92-19.24-34.02c-4.73-13.09-8.04-27.33-9.92-42.73L1804.61,946h39.69
		l12.15,100.03c1.35,9.45,3.37,18.22,6.07,26.32c2.69,8.1,6.41,15.05,11.14,20.86c4.72,5.81,10.59,10.4,17.62,13.77
		C1898.29,1110.36,1906.53,1112.05,1915.98,1112.05z M1911.93,1278.09c-15.39,0-29.43-2.5-42.12-7.49
		c-12.69-5-23.56-12.09-32.6-21.26c-9.05-9.18-16.07-20.12-21.06-32.8c-5-12.7-7.49-26.73-7.49-42.12h39.69
		c0,19.17,5.8,34.49,17.41,45.97c11.61,11.47,26.99,17.21,46.17,17.21c19.17,0,34.56-5.81,46.17-17.41
		c11.61-11.61,17.41-27,17.41-46.17v-147.82h39.69v148.63c0,15.39-2.5,29.42-7.49,42.12c-5,12.69-12.02,23.55-21.06,32.6
		c-9.05,9.04-19.91,16.06-32.6,21.06C1941.36,1275.59,1927.32,1278.09,1911.93,1278.09z"/>
	<path class="st6" d="M2151.28,982.45c-9.45,0-17.89,1.62-25.31,4.86c-7.43,3.24-13.71,7.84-18.83,13.77
		c-5.13,5.94-9.05,12.96-11.75,21.06c-2.7,8.1-4.05,16.88-4.05,26.32v100.03h-39.28v-99.22c0-15.39,2.29-29.63,6.88-42.73
		c4.59-13.09,11.14-24.43,19.64-34.02c8.51-9.58,18.9-17.07,31.18-22.48c12.28-5.4,26.12-8.1,41.51-8.1c15.39,0,28.82,2.7,40.3,8.1
		c11.47,5.4,21.26,12.9,29.36,22.48c8.1,9.59,14.58,20.93,19.44,34.02c4.86,13.1,8.23,27.34,10.12,42.73l12.15,99.22h-39.69
		l-12.55-100.03c-1.08-9.45-3.04-18.22-5.87-26.32c-2.83-8.1-6.62-15.05-11.34-20.86c-4.73-5.8-10.53-10.39-17.41-13.77
		C2168.9,984.14,2160.73,982.45,2151.28,982.45z"/>
	<path class="st6" d="M2282.09,1049.27c0-15.39,2.49-29.63,7.49-42.73c4.99-13.09,12.01-24.43,21.06-34.02
		c9.04-9.58,19.91-17.07,32.6-22.48c12.69-5.4,26.73-8.1,42.12-8.1c12.96,0,24.97,1.96,36.04,5.87c11.07,3.92,20.92,9.31,29.56,16.2
		c8.64,6.88,15.86,15.19,21.67,24.91c5.8,9.72,10.05,20.39,12.76,31.99v11.75l-159.97,40.09c4.32,12.15,11.68,21.73,22.07,28.75
		c10.39,7.02,23.02,10.53,37.87,10.53c14.03,0,26.18-3.51,36.45-10.53c10.26-7.02,17.68-16.33,22.27-27.94h41.31
		c-2.7,11.61-6.95,22.28-12.76,31.99c-5.81,9.72-13.03,18.02-21.67,24.91c-8.64,6.88-18.5,12.29-29.56,16.2
		c-11.07,3.91-23.08,5.87-36.04,5.87c-15.39,0-29.43-2.57-42.12-7.7c-12.69-5.13-23.56-12.21-32.6-21.26
		c-9.05-9.04-16.07-19.91-21.06-32.6C2284.59,1078.3,2282.09,1064.4,2282.09,1049.27z M2434.77,1004.72
		c-5.67-7.02-12.76-12.49-21.26-16.4c-8.51-3.91-17.89-5.87-28.15-5.87c-16.74,0-30.65,4.73-41.72,14.18
		c-11.07,9.45-18.09,21.87-21.06,37.26L2434.77,1004.72z"/>
	<path class="st6" d="M2603.65,1066.69c-8.91,0-16.74,0.68-23.49,2.03c-6.75,1.35-12.49,3.58-17.21,6.68
		c-4.73,3.11-8.44,7.29-11.14,12.55c-2.7,5.27-4.59,11.82-5.67,19.64l-4.86,40.9h-39.69l5.27-40.09
		c2.16-16.46,6.34-29.97,12.56-40.5c6.21-10.53,14.31-17.41,24.3-20.65c-10.8-3.51-19.1-10.06-24.91-19.64
		c-5.81-9.58-9.79-23.42-11.95-41.51L2501.6,946h39.69l4.86,40.91c2.16,15.66,7.76,26.32,16.81,31.99
		c9.04,5.67,22.61,8.51,40.7,8.51c18.09,0,31.65-2.83,40.7-8.51c9.04-5.67,14.64-16.33,16.81-31.99l4.86-40.91h39.28l-4.86,40.09
		c-2.16,18.09-6.14,31.93-11.95,41.51c-5.81,9.59-14.11,16.14-24.91,19.64c9.99,3.24,18.09,10.12,24.3,20.65
		c6.21,10.53,10.39,24.03,12.55,40.5l4.86,40.09h-39.28l-4.86-40.9c-1.89-15.93-7.43-26.73-16.6-32.4
		C2635.38,1069.52,2621.74,1066.69,2603.65,1066.69z"/>
</g>
<g>
	<path class="st6" d="M694.87,1022.9L694.87,1022.9c2.33-0.55,4.2-2.28,4.93-4.55l43.04-132.86l147.03-34.89
		c4.64-1.1,8.3-4.64,9.57-9.23l28.49-103.52c2.54-9.22-5.73-17.8-15.04-15.59l-127.6,30.28l-137.83,32.7
		c-5.01,1.19-9.04,4.9-10.63,9.79L598.8,911.57c-1.77,5.42-0.48,11.37,3.38,15.57l86.08,93.73
		C689.93,1022.69,692.46,1023.47,694.87,1022.9z"/>
	<path class="st6" d="M945.48,977.32L945.48,977.32c-2.93,0.64-5.29,2.79-6.21,5.65L897,1114.39l-143.07,33.95
		c-5.52,1.31-9.9,5.51-11.45,10.97l-29.6,104.48c-2.34,8.25,5.06,15.97,13.4,13.99l128.26-30.43l137.38-32.6
		c5.28-1.25,9.52-5.18,11.17-10.35l36.59-114.6c2.35-7.36,0.58-15.41-4.65-21.1l-81.56-88.86
		C951.46,977.64,948.41,976.67,945.48,977.32z"/>
	<path class="st6" d="M738.4,1152.03l39.81-124.1c3.48-10.85-6.23-21.34-17.31-18.71l-62.27,14.77l-7.65,1.81l-50.7,12.02
		c-4.93,1.17-8.9,4.81-10.51,9.61l-37.69,113.44c-4.19,12.61,6.7,25.09,19.76,22.64l38.13-7.13l77.2-14.44
		C732.44,1160.95,736.75,1157.15,738.4,1152.03L738.4,1152.03z"/>
	<path class="st6" d="M866.77,966.86c-3.84,12.84,7.52,25.08,20.61,22.21l53.38-11.71l9.46-2.07l46.48-10.19
		c8.45-1.85,15.2-8.19,17.58-16.5l32.91-114.7c3.83-13.36-8.39-25.78-21.81-22.15l-23.46,6.34l-11.28,3.05L909.67,843
		c-3.94,1.06-7.05,4.09-8.22,8L866.77,966.86z"/>
</g>
</svg>
